<mxfile host="Electron" modified="2023-10-21T18:56:57.436Z" agent="Mozilla/5.0 (X11; Linux x86_64) AppleWebKit/537.36 (KHTML, like Gecko) draw.io/22.0.3 Chrome/114.0.5735.289 Electron/25.8.4 Safari/537.36" etag="s46lWUJRmlQLD2xPxZFR" version="22.0.3" type="device">
  <diagram name="Page-1" id="929967ad-93f9-6ef4-fab6-5d389245f69c">
    <mxGraphModel dx="2969.5" dy="763" grid="1" gridSize="10" guides="1" tooltips="1" connect="1" arrows="1" fold="1" page="1" pageScale="1.5" pageWidth="1169" pageHeight="826" background="none" math="0" shadow="0">
      <root>
        <mxCell id="0" style=";html=1;" />
        <mxCell id="1" style=";html=1;" parent="0" />
        <mxCell id="RPWqJmKMvpINWSAvLAO3-7" value="&lt;p style=&quot;margin:0px;margin-top:4px;text-align:center;&quot;&gt;&lt;b&gt;C&lt;/b&gt;&lt;b style=&quot;background-color: initial;&quot;&gt;anvas&lt;/b&gt;&lt;/p&gt;&lt;hr size=&quot;1&quot;&gt;&lt;p style=&quot;margin:0px;margin-left:4px;&quot;&gt;- shapes: Shape[]&lt;/p&gt;&lt;p style=&quot;margin:0px;margin-left:4px;&quot;&gt;&lt;br&gt;&lt;/p&gt;&lt;hr size=&quot;1&quot;&gt;&lt;p style=&quot;margin:0px;margin-left:4px;&quot;&gt;+ draw(): void&lt;br&gt;&lt;span style=&quot;background-color: initial;&quot;&gt;+ addShape(String name, Shape shape): Shape[]&lt;br&gt;&lt;/span&gt;+ delShape(String name): Boolean&lt;br&gt;&lt;/p&gt;" style="verticalAlign=top;align=left;overflow=fill;fontSize=12;fontFamily=Helvetica;html=1;whiteSpace=wrap;glass=0;rounded=0;shadow=0;" vertex="1" parent="1">
          <mxGeometry x="80" y="420" width="300" height="150" as="geometry" />
        </mxCell>
        <mxCell id="RPWqJmKMvpINWSAvLAO3-9" value="&lt;p style=&quot;margin:0px;margin-top:4px;text-align:center;&quot;&gt;&lt;i&gt;&amp;lt;&amp;lt;Interface&amp;gt;&amp;gt;&lt;/i&gt;&lt;br&gt;&lt;b style=&quot;&quot;&gt;Drawable&lt;/b&gt;&lt;br&gt;&lt;/p&gt;&lt;p style=&quot;margin:0px;margin-left:4px;&quot;&gt;&lt;br&gt;&lt;/p&gt;&lt;hr size=&quot;1&quot;&gt;&lt;p style=&quot;margin:0px;margin-left:4px;&quot;&gt;+ draw():&lt;br&gt;&lt;br&gt;&lt;/p&gt;" style="verticalAlign=top;align=left;overflow=fill;fontSize=12;fontFamily=Helvetica;html=1;whiteSpace=wrap;" vertex="1" parent="1">
          <mxGeometry x="320" y="110" width="150" height="140" as="geometry" />
        </mxCell>
        <mxCell id="RPWqJmKMvpINWSAvLAO3-32" value="&lt;p style=&quot;margin:0px;margin-top:4px;text-align:center;&quot;&gt;&lt;i style=&quot;&quot;&gt;Abstract&lt;br&gt;&lt;b&gt;Shape&lt;/b&gt;&lt;/i&gt;&lt;/p&gt;&lt;hr size=&quot;1&quot;&gt;&lt;p style=&quot;margin:0px;margin-left:4px;&quot;&gt;&lt;i&gt;+ name: String&lt;/i&gt;&lt;/p&gt;&lt;hr size=&quot;1&quot;&gt;&lt;p style=&quot;margin:0px;margin-left:4px;&quot;&gt;&lt;i style=&quot;background-color: initial;&quot;&gt;+ getName():&amp;nbsp;&lt;/i&gt;&lt;br&gt;&lt;/p&gt;&lt;p style=&quot;margin:0px;margin-left:4px;&quot;&gt;&lt;br&gt;&lt;/p&gt;" style="verticalAlign=top;align=left;overflow=fill;fontSize=12;fontFamily=Helvetica;html=1;whiteSpace=wrap;glass=0;rounded=0;shadow=0;" vertex="1" parent="1">
          <mxGeometry x="470" y="420" width="160" height="150" as="geometry" />
        </mxCell>
        <mxCell id="RPWqJmKMvpINWSAvLAO3-33" value="&lt;p style=&quot;margin:0px;margin-top:4px;text-align:center;&quot;&gt;&lt;b style=&quot;&quot;&gt;Poligon&lt;/b&gt;&lt;/p&gt;&lt;hr size=&quot;1&quot;&gt;&lt;p style=&quot;margin:0px;margin-left:4px;&quot;&gt;- name: String&lt;br&gt;&lt;/p&gt;&lt;hr size=&quot;1&quot;&gt;&lt;p style=&quot;margin:0px;margin-left:4px;&quot;&gt;+ draw():&amp;nbsp;&lt;br style=&quot;border-color: var(--border-color);&quot;&gt;+ getName():&amp;nbsp;&lt;br&gt;&lt;/p&gt;" style="verticalAlign=top;align=left;overflow=fill;fontSize=12;fontFamily=Helvetica;html=1;whiteSpace=wrap;glass=0;rounded=0;shadow=0;" vertex="1" parent="1">
          <mxGeometry x="800" y="530" width="160" height="130" as="geometry" />
        </mxCell>
        <mxCell id="RPWqJmKMvpINWSAvLAO3-36" value="&lt;div style=&quot;text-align: center;&quot;&gt;&lt;span style=&quot;background-color: initial;&quot;&gt;&lt;b&gt;Quad&lt;/b&gt;&lt;/span&gt;&lt;/div&gt;&lt;hr size=&quot;1&quot;&gt;&lt;p style=&quot;margin:0px;margin-left:4px;&quot;&gt;- name: String&lt;br&gt;&lt;/p&gt;&lt;hr size=&quot;1&quot;&gt;&lt;p style=&quot;margin:0px;margin-left:4px;&quot;&gt;+ draw():&amp;nbsp;&lt;br style=&quot;border-color: var(--border-color);&quot;&gt;+ getName():&amp;nbsp;&lt;br&gt;&lt;/p&gt;" style="verticalAlign=top;align=left;overflow=fill;fontSize=12;fontFamily=Helvetica;html=1;whiteSpace=wrap;glass=0;rounded=0;shadow=0;" vertex="1" parent="1">
          <mxGeometry x="800" y="680" width="160" height="130" as="geometry" />
        </mxCell>
        <mxCell id="RPWqJmKMvpINWSAvLAO3-37" value="&lt;p style=&quot;margin:0px;margin-top:4px;text-align:center;&quot;&gt;&lt;b style=&quot;&quot;&gt;Line&lt;/b&gt;&lt;/p&gt;&lt;hr size=&quot;1&quot;&gt;- name: String&lt;br&gt;&lt;hr size=&quot;1&quot;&gt;&lt;p style=&quot;margin:0px;margin-left:4px;&quot;&gt;+ draw():&amp;nbsp;&lt;br&gt;+ getName():&amp;nbsp;&lt;br&gt;&lt;/p&gt;" style="verticalAlign=top;align=left;overflow=fill;fontSize=12;fontFamily=Helvetica;html=1;whiteSpace=wrap;glass=0;rounded=0;shadow=0;" vertex="1" parent="1">
          <mxGeometry x="800" y="840" width="160" height="130" as="geometry" />
        </mxCell>
        <mxCell id="RPWqJmKMvpINWSAvLAO3-38" value="&lt;p style=&quot;margin:0px;margin-top:4px;text-align:center;&quot;&gt;&lt;b style=&quot;&quot;&gt;Circle&lt;/b&gt;&lt;/p&gt;&lt;hr size=&quot;1&quot;&gt;&lt;p style=&quot;margin:0px;margin-left:4px;&quot;&gt;- name: String&lt;br&gt;&lt;/p&gt;&lt;hr size=&quot;1&quot;&gt;&lt;p style=&quot;margin:0px;margin-left:4px;&quot;&gt;+ draw():&amp;nbsp;&lt;br style=&quot;border-color: var(--border-color);&quot;&gt;+ getName():&amp;nbsp;&lt;br&gt;&lt;/p&gt;" style="verticalAlign=top;align=left;overflow=fill;fontSize=12;fontFamily=Helvetica;html=1;whiteSpace=wrap;glass=0;rounded=0;shadow=0;" vertex="1" parent="1">
          <mxGeometry x="797" y="370" width="160" height="130" as="geometry" />
        </mxCell>
        <mxCell id="RPWqJmKMvpINWSAvLAO3-39" value="&lt;p style=&quot;margin:0px;margin-top:4px;text-align:center;&quot;&gt;&lt;b&gt;Triangle&lt;/b&gt;&lt;/p&gt;&lt;hr size=&quot;1&quot;&gt;&lt;p style=&quot;margin:0px;margin-left:4px;&quot;&gt;- name: String&lt;/p&gt;&lt;hr size=&quot;1&quot;&gt;&lt;p style=&quot;margin:0px;margin-left:4px;&quot;&gt;+ draw(): Drawable&lt;/p&gt;&lt;p style=&quot;margin:0px;margin-left:4px;&quot;&gt;+ getName():&amp;nbsp;&lt;br&gt;&lt;br&gt;&lt;/p&gt;" style="verticalAlign=top;align=left;overflow=fill;fontSize=12;fontFamily=Helvetica;html=1;whiteSpace=wrap;glass=0;rounded=0;shadow=0;" vertex="1" parent="1">
          <mxGeometry x="795" y="210" width="160" height="130" as="geometry" />
        </mxCell>
        <mxCell id="RPWqJmKMvpINWSAvLAO3-47" value="&lt;p style=&quot;margin:0px;margin-top:4px;text-align:center;&quot;&gt;&lt;b&gt;LocalStorage&lt;/b&gt;&lt;/p&gt;&lt;hr size=&quot;1&quot;&gt;&lt;p style=&quot;margin:0px;margin-left:4px;&quot;&gt;&lt;br&gt;&lt;/p&gt;&lt;hr size=&quot;1&quot;&gt;&lt;p style=&quot;margin:0px;margin-left:4px;&quot;&gt;+ save(Canvas canvas): Boolean&lt;br&gt;&lt;/p&gt;" style="verticalAlign=top;align=left;overflow=fill;fontSize=12;fontFamily=Helvetica;html=1;whiteSpace=wrap;glass=0;rounded=0;shadow=0;" vertex="1" parent="1">
          <mxGeometry x="-940" y="270" width="190" height="130" as="geometry" />
        </mxCell>
        <mxCell id="RPWqJmKMvpINWSAvLAO3-48" value="&lt;p style=&quot;margin:0px;margin-top:4px;text-align:center;&quot;&gt;&lt;b&gt;CloudStorage&lt;/b&gt;&lt;/p&gt;&lt;hr size=&quot;1&quot;&gt;&lt;p style=&quot;margin:0px;margin-left:4px;&quot;&gt;&lt;br&gt;&lt;/p&gt;&lt;hr size=&quot;1&quot;&gt;&lt;p style=&quot;margin:0px;margin-left:4px;&quot;&gt;+ save(Canvas canvas): Boolean&lt;br&gt;&lt;/p&gt;" style="verticalAlign=top;align=left;overflow=fill;fontSize=12;fontFamily=Helvetica;html=1;whiteSpace=wrap;glass=0;rounded=0;shadow=0;" vertex="1" parent="1">
          <mxGeometry x="-710" y="270" width="190" height="130" as="geometry" />
        </mxCell>
        <mxCell id="RPWqJmKMvpINWSAvLAO3-51" value="" style="endArrow=diamondThin;endFill=0;endSize=24;html=1;rounded=0;exitX=0.009;exitY=0.187;exitDx=0;exitDy=0;exitPerimeter=0;entryX=0.997;entryY=0.186;entryDx=0;entryDy=0;entryPerimeter=0;" edge="1" parent="1" source="RPWqJmKMvpINWSAvLAO3-32" target="RPWqJmKMvpINWSAvLAO3-7">
          <mxGeometry width="160" relative="1" as="geometry">
            <mxPoint x="400" y="356" as="sourcePoint" />
            <mxPoint x="290" y="450" as="targetPoint" />
          </mxGeometry>
        </mxCell>
        <mxCell id="RPWqJmKMvpINWSAvLAO3-52" value="&lt;p style=&quot;margin:0px;margin-top:4px;text-align:center;&quot;&gt;&amp;lt;&amp;lt;&lt;i&gt;Interface&lt;/i&gt;&amp;gt;&amp;gt;&lt;br&gt;&lt;b style=&quot;&quot;&gt;Storeable&lt;/b&gt;&lt;/p&gt;&lt;hr size=&quot;1&quot;&gt;&lt;p style=&quot;margin:0px;margin-left:4px;&quot;&gt;&lt;br&gt;&lt;/p&gt;&lt;hr size=&quot;1&quot;&gt;&lt;p style=&quot;margin:0px;margin-left:4px;&quot;&gt;&lt;br&gt;+ save(Canvas canvas): Boolean&lt;/p&gt;&lt;p style=&quot;margin:0px;margin-left:4px;&quot;&gt;&lt;br&gt;&lt;br&gt;&lt;/p&gt;" style="verticalAlign=top;align=left;overflow=fill;fontSize=12;fontFamily=Helvetica;html=1;whiteSpace=wrap;glass=0;rounded=0;shadow=0;" vertex="1" parent="1">
          <mxGeometry x="-800" y="80" width="190" height="130" as="geometry" />
        </mxCell>
        <mxCell id="RPWqJmKMvpINWSAvLAO3-54" value="" style="endArrow=block;dashed=1;endFill=0;endSize=12;html=1;rounded=0;exitX=0.528;exitY=0;exitDx=0;exitDy=0;entryX=0.209;entryY=0.998;entryDx=0;entryDy=0;entryPerimeter=0;exitPerimeter=0;" edge="1" parent="1" source="RPWqJmKMvpINWSAvLAO3-47" target="RPWqJmKMvpINWSAvLAO3-52">
          <mxGeometry width="160" relative="1" as="geometry">
            <mxPoint x="-900" y="609.8" as="sourcePoint" />
            <mxPoint x="-741.5999999999999" y="441" as="targetPoint" />
            <Array as="points">
              <mxPoint x="-840" y="240" />
              <mxPoint x="-760" y="240" />
            </Array>
          </mxGeometry>
        </mxCell>
        <mxCell id="RPWqJmKMvpINWSAvLAO3-61" value="&lt;p style=&quot;margin:0px;margin-top:4px;text-align:center;&quot;&gt;&lt;b&gt;Printer&lt;/b&gt;&lt;/p&gt;&lt;hr size=&quot;1&quot;&gt;&lt;p style=&quot;margin:0px;margin-left:4px;&quot;&gt;&lt;br&gt;&lt;/p&gt;&lt;hr size=&quot;1&quot;&gt;&lt;p style=&quot;margin:0px;margin-left:4px;&quot;&gt;+ print(Canvas canvas):&amp;nbsp;&lt;br&gt;&lt;/p&gt;" style="verticalAlign=top;align=left;overflow=fill;fontSize=12;fontFamily=Helvetica;html=1;whiteSpace=wrap;glass=0;rounded=0;shadow=0;" vertex="1" parent="1">
          <mxGeometry x="-490" y="270" width="160" height="130" as="geometry" />
        </mxCell>
        <mxCell id="RPWqJmKMvpINWSAvLAO3-62" value="&lt;p style=&quot;margin:0px;margin-top:4px;text-align:center;&quot;&gt;&lt;b&gt;Plotter&lt;/b&gt;&lt;/p&gt;&lt;hr size=&quot;1&quot;&gt;&lt;p style=&quot;margin:0px;margin-left:4px;&quot;&gt;&lt;br&gt;&lt;/p&gt;&lt;hr size=&quot;1&quot;&gt;&lt;p style=&quot;margin:0px;margin-left:4px;&quot;&gt;+ print(Canvas canvas):&amp;nbsp;&lt;br&gt;&lt;/p&gt;" style="verticalAlign=top;align=left;overflow=fill;fontSize=12;fontFamily=Helvetica;html=1;whiteSpace=wrap;glass=0;rounded=0;shadow=0;" vertex="1" parent="1">
          <mxGeometry x="-249.5" y="270" width="160" height="130" as="geometry" />
        </mxCell>
        <mxCell id="RPWqJmKMvpINWSAvLAO3-63" value="&lt;p style=&quot;margin:0px;margin-top:4px;text-align:center;&quot;&gt;&amp;lt;&amp;lt;&lt;i style=&quot;border-color: var(--border-color);&quot;&gt;Interface&lt;/i&gt;&amp;gt;&amp;gt;&lt;br style=&quot;border-color: var(--border-color);&quot;&gt;&lt;b style=&quot;&quot;&gt;Printable&lt;/b&gt;&lt;/p&gt;&lt;hr size=&quot;1&quot;&gt;&lt;p style=&quot;margin:0px;margin-left:4px;&quot;&gt;&lt;br&gt;&lt;/p&gt;&lt;hr size=&quot;1&quot;&gt;&lt;p style=&quot;margin:0px;margin-left:4px;&quot;&gt;&lt;br&gt;&lt;i&gt;+ print(Canvas canvas):&amp;nbsp;&lt;/i&gt;&lt;/p&gt;&lt;p style=&quot;margin:0px;margin-left:4px;&quot;&gt;&lt;br&gt;&lt;br&gt;&lt;/p&gt;" style="verticalAlign=top;align=left;overflow=fill;fontSize=12;fontFamily=Helvetica;html=1;whiteSpace=wrap;glass=0;rounded=0;shadow=0;" vertex="1" parent="1">
          <mxGeometry x="-360" y="80" width="160" height="130" as="geometry" />
        </mxCell>
        <mxCell id="RPWqJmKMvpINWSAvLAO3-79" value="" style="endArrow=block;dashed=1;endFill=0;endSize=12;html=1;rounded=0;edgeStyle=elbowEdgeStyle;entryX=0.995;entryY=0.062;entryDx=0;entryDy=0;entryPerimeter=0;exitX=0;exitY=0.25;exitDx=0;exitDy=0;" edge="1" parent="1" source="RPWqJmKMvpINWSAvLAO3-39" target="RPWqJmKMvpINWSAvLAO3-9">
          <mxGeometry width="160" relative="1" as="geometry">
            <mxPoint x="390" y="240" as="sourcePoint" />
            <mxPoint x="350" y="170" as="targetPoint" />
            <Array as="points">
              <mxPoint x="770" y="200" />
            </Array>
          </mxGeometry>
        </mxCell>
        <mxCell id="RPWqJmKMvpINWSAvLAO3-80" value="" style="endArrow=block;dashed=1;endFill=0;endSize=12;html=1;rounded=0;edgeStyle=elbowEdgeStyle;exitX=-0.002;exitY=0.111;exitDx=0;exitDy=0;exitPerimeter=0;" edge="1" parent="1" source="RPWqJmKMvpINWSAvLAO3-38">
          <mxGeometry width="160" relative="1" as="geometry">
            <mxPoint x="845" y="220" as="sourcePoint" />
            <mxPoint x="470" y="160" as="targetPoint" />
            <Array as="points">
              <mxPoint x="770" y="270" />
            </Array>
          </mxGeometry>
        </mxCell>
        <mxCell id="RPWqJmKMvpINWSAvLAO3-81" value="" style="endArrow=block;dashed=1;endFill=0;endSize=12;html=1;rounded=0;edgeStyle=elbowEdgeStyle;exitX=-0.001;exitY=0.07;exitDx=0;exitDy=0;exitPerimeter=0;entryX=1;entryY=0.25;entryDx=0;entryDy=0;" edge="1" parent="1" source="RPWqJmKMvpINWSAvLAO3-33" target="RPWqJmKMvpINWSAvLAO3-9">
          <mxGeometry width="160" relative="1" as="geometry">
            <mxPoint x="787" y="544" as="sourcePoint" />
            <mxPoint x="470" y="30" as="targetPoint" />
            <Array as="points">
              <mxPoint x="770" y="350" />
            </Array>
          </mxGeometry>
        </mxCell>
        <mxCell id="RPWqJmKMvpINWSAvLAO3-82" value="" style="endArrow=block;dashed=1;endFill=0;endSize=12;html=1;rounded=0;edgeStyle=elbowEdgeStyle;exitX=-0.001;exitY=0.091;exitDx=0;exitDy=0;exitPerimeter=0;entryX=1;entryY=0.5;entryDx=0;entryDy=0;" edge="1" parent="1" source="RPWqJmKMvpINWSAvLAO3-36" target="RPWqJmKMvpINWSAvLAO3-9">
          <mxGeometry width="160" relative="1" as="geometry">
            <mxPoint x="790" y="699" as="sourcePoint" />
            <mxPoint x="470" y="30" as="targetPoint" />
            <Array as="points">
              <mxPoint x="770" y="420" />
            </Array>
          </mxGeometry>
        </mxCell>
        <mxCell id="RPWqJmKMvpINWSAvLAO3-83" value="" style="endArrow=block;dashed=1;endFill=0;endSize=12;html=1;rounded=0;edgeStyle=elbowEdgeStyle;exitX=-0.021;exitY=0.091;exitDx=0;exitDy=0;exitPerimeter=0;" edge="1" parent="1" source="RPWqJmKMvpINWSAvLAO3-37">
          <mxGeometry width="160" relative="1" as="geometry">
            <mxPoint x="760" y="862" as="sourcePoint" />
            <mxPoint x="470" y="130" as="targetPoint" />
            <Array as="points">
              <mxPoint x="770" y="510" />
            </Array>
          </mxGeometry>
        </mxCell>
        <mxCell id="RPWqJmKMvpINWSAvLAO3-84" value="" style="endArrow=block;endSize=16;endFill=0;html=1;rounded=0;entryX=1.002;entryY=0.135;entryDx=0;entryDy=0;entryPerimeter=0;exitX=0.01;exitY=0.346;exitDx=0;exitDy=0;exitPerimeter=0;" edge="1" parent="1" source="RPWqJmKMvpINWSAvLAO3-39" target="RPWqJmKMvpINWSAvLAO3-32">
          <mxGeometry y="30" width="160" relative="1" as="geometry">
            <mxPoint x="550" y="670" as="sourcePoint" />
            <mxPoint x="710" y="670" as="targetPoint" />
            <Array as="points">
              <mxPoint x="720" y="255" />
              <mxPoint x="720" y="440" />
            </Array>
            <mxPoint as="offset" />
          </mxGeometry>
        </mxCell>
        <mxCell id="RPWqJmKMvpINWSAvLAO3-85" value="" style="endArrow=block;endSize=16;endFill=0;html=1;rounded=0;entryX=1.002;entryY=0.128;entryDx=0;entryDy=0;entryPerimeter=0;exitX=0.019;exitY=0.154;exitDx=0;exitDy=0;exitPerimeter=0;" edge="1" parent="1" source="RPWqJmKMvpINWSAvLAO3-38" target="RPWqJmKMvpINWSAvLAO3-32">
          <mxGeometry y="30" width="160" relative="1" as="geometry">
            <mxPoint x="723" y="495" as="sourcePoint" />
            <mxPoint x="560" y="679" as="targetPoint" />
            <Array as="points">
              <mxPoint x="720" y="390" />
              <mxPoint x="720" y="440" />
            </Array>
            <mxPoint as="offset" />
          </mxGeometry>
        </mxCell>
        <mxCell id="RPWqJmKMvpINWSAvLAO3-86" value="" style="endArrow=block;endSize=16;endFill=0;html=1;rounded=0;exitX=-0.008;exitY=0.16;exitDx=0;exitDy=0;exitPerimeter=0;" edge="1" parent="1" source="RPWqJmKMvpINWSAvLAO3-33">
          <mxGeometry y="30" width="160" relative="1" as="geometry">
            <mxPoint x="810" y="400" as="sourcePoint" />
            <mxPoint x="630" y="440" as="targetPoint" />
            <Array as="points">
              <mxPoint x="720" y="551" />
              <mxPoint x="720" y="440" />
            </Array>
            <mxPoint as="offset" />
          </mxGeometry>
        </mxCell>
        <mxCell id="RPWqJmKMvpINWSAvLAO3-87" value="" style="endArrow=block;endSize=16;endFill=0;html=1;rounded=0;exitX=0.005;exitY=0.204;exitDx=0;exitDy=0;exitPerimeter=0;" edge="1" parent="1" source="RPWqJmKMvpINWSAvLAO3-36">
          <mxGeometry y="30" width="160" relative="1" as="geometry">
            <mxPoint x="779" y="591" as="sourcePoint" />
            <mxPoint x="630" y="440" as="targetPoint" />
            <Array as="points">
              <mxPoint x="720" y="707" />
              <mxPoint x="720" y="570" />
              <mxPoint x="720" y="440" />
            </Array>
            <mxPoint as="offset" />
          </mxGeometry>
        </mxCell>
        <mxCell id="RPWqJmKMvpINWSAvLAO3-88" value="" style="endArrow=block;endSize=16;endFill=0;html=1;rounded=0;exitX=-0.016;exitY=0.158;exitDx=0;exitDy=0;exitPerimeter=0;" edge="1" parent="1" source="RPWqJmKMvpINWSAvLAO3-37">
          <mxGeometry y="30" width="160" relative="1" as="geometry">
            <mxPoint x="795" y="875.01" as="sourcePoint" />
            <mxPoint x="630" y="440" as="targetPoint" />
            <Array as="points">
              <mxPoint x="720" y="860" />
              <mxPoint x="720" y="800" />
              <mxPoint x="720" y="740" />
              <mxPoint x="720" y="440" />
            </Array>
            <mxPoint as="offset" />
          </mxGeometry>
        </mxCell>
        <mxCell id="RPWqJmKMvpINWSAvLAO3-94" value="" style="endArrow=block;dashed=1;endFill=0;endSize=12;html=1;rounded=0;exitX=0.403;exitY=-0.027;exitDx=0;exitDy=0;exitPerimeter=0;entryX=0.25;entryY=1;entryDx=0;entryDy=0;" edge="1" parent="1" source="RPWqJmKMvpINWSAvLAO3-7" target="RPWqJmKMvpINWSAvLAO3-9">
          <mxGeometry width="160" relative="1" as="geometry">
            <mxPoint x="200.0000000000001" y="409" as="sourcePoint" />
            <mxPoint x="359" y="230" as="targetPoint" />
            <Array as="points">
              <mxPoint x="200" y="360" />
              <mxPoint x="361" y="360" />
            </Array>
          </mxGeometry>
        </mxCell>
        <mxCell id="RPWqJmKMvpINWSAvLAO3-95" value="" style="endArrow=block;dashed=1;endFill=0;endSize=12;html=1;rounded=0;exitX=0.165;exitY=-0.008;exitDx=0;exitDy=0;entryX=0.636;entryY=0.984;entryDx=0;entryDy=0;entryPerimeter=0;exitPerimeter=0;" edge="1" parent="1" source="RPWqJmKMvpINWSAvLAO3-48" target="RPWqJmKMvpINWSAvLAO3-52">
          <mxGeometry width="160" relative="1" as="geometry">
            <mxPoint x="-700" y="270" as="sourcePoint" />
            <mxPoint x="-620" y="210" as="targetPoint" />
            <Array as="points">
              <mxPoint x="-680" y="240" />
            </Array>
          </mxGeometry>
        </mxCell>
        <mxCell id="RPWqJmKMvpINWSAvLAO3-96" value="" style="endArrow=block;dashed=1;endFill=0;endSize=12;html=1;rounded=0;entryX=0.636;entryY=0.984;entryDx=0;entryDy=0;entryPerimeter=0;" edge="1" parent="1">
          <mxGeometry width="160" relative="1" as="geometry">
            <mxPoint x="-350" y="270" as="sourcePoint" />
            <mxPoint x="-349" y="209" as="targetPoint" />
            <Array as="points">
              <mxPoint x="-350" y="241" />
            </Array>
          </mxGeometry>
        </mxCell>
        <mxCell id="RPWqJmKMvpINWSAvLAO3-97" value="" style="endArrow=block;dashed=1;endFill=0;endSize=12;html=1;rounded=0;entryX=0.75;entryY=1;entryDx=0;entryDy=0;exitX=0.067;exitY=-0.02;exitDx=0;exitDy=0;exitPerimeter=0;" edge="1" parent="1" source="RPWqJmKMvpINWSAvLAO3-62" target="RPWqJmKMvpINWSAvLAO3-63">
          <mxGeometry width="160" relative="1" as="geometry">
            <mxPoint x="-240" y="271" as="sourcePoint" />
            <mxPoint x="-239" y="210" as="targetPoint" />
            <Array as="points">
              <mxPoint x="-240" y="242" />
            </Array>
          </mxGeometry>
        </mxCell>
        <mxCell id="RPWqJmKMvpINWSAvLAO3-98" value="&lt;p style=&quot;margin:0px;margin-top:4px;text-align:center;&quot;&gt;&lt;i&gt;&amp;lt;&amp;lt;Interface&amp;gt;&amp;gt;&lt;/i&gt;&lt;br&gt;&lt;b style=&quot;&quot;&gt;Borderable&lt;/b&gt;&lt;br&gt;&lt;/p&gt;&lt;p style=&quot;margin:0px;margin-left:4px;&quot;&gt;&lt;br&gt;&lt;/p&gt;&lt;hr size=&quot;1&quot;&gt;&lt;p style=&quot;margin:0px;margin-left:4px;&quot;&gt;+ getBorderWidth(): double&lt;br&gt;+ setBorderWidth(double width):&lt;br&gt;+ getBorderColor(): Color&lt;br&gt;+ setBorderColor(Color color):&lt;br&gt;&lt;br&gt;&lt;/p&gt;" style="verticalAlign=top;align=left;overflow=fill;fontSize=12;fontFamily=Helvetica;html=1;whiteSpace=wrap;" vertex="1" parent="1">
          <mxGeometry x="1080" y="40" width="200" height="140" as="geometry" />
        </mxCell>
        <mxCell id="RPWqJmKMvpINWSAvLAO3-99" value="" style="endArrow=block;dashed=1;endFill=0;endSize=12;html=1;rounded=0;entryX=-0.013;entryY=0.351;entryDx=0;entryDy=0;entryPerimeter=0;" edge="1" parent="1" source="RPWqJmKMvpINWSAvLAO3-39" target="RPWqJmKMvpINWSAvLAO3-98">
          <mxGeometry width="160" relative="1" as="geometry">
            <mxPoint x="861" y="276" as="sourcePoint" />
            <mxPoint x="1018" y="110" as="targetPoint" />
            <Array as="points">
              <mxPoint x="1000" y="270" />
              <mxPoint x="1000" y="220" />
              <mxPoint x="1000" y="90" />
            </Array>
          </mxGeometry>
        </mxCell>
        <mxCell id="RPWqJmKMvpINWSAvLAO3-100" value="&lt;p style=&quot;margin:0px;margin-top:4px;text-align:center;&quot;&gt;&lt;i&gt;&amp;lt;&amp;lt;Interface&amp;gt;&amp;gt;&lt;/i&gt;&lt;br&gt;&lt;b style=&quot;&quot;&gt;Scalable&lt;/b&gt;&lt;br&gt;&lt;/p&gt;&lt;p style=&quot;margin:0px;margin-left:4px;&quot;&gt;&lt;br&gt;&lt;/p&gt;&lt;hr size=&quot;1&quot;&gt;&lt;p style=&quot;margin:0px;margin-left:4px;&quot;&gt;+ getBorderWidth(): double&lt;br&gt;+ setBorderWidth(double width):&lt;br&gt;+ getBorderColor(): Color&lt;br&gt;+ setBorderColor(Color color):&lt;br&gt;&lt;br&gt;&lt;/p&gt;" style="verticalAlign=top;align=left;overflow=fill;fontSize=12;fontFamily=Helvetica;html=1;whiteSpace=wrap;" vertex="1" parent="1">
          <mxGeometry x="1160" y="240" width="200" height="140" as="geometry" />
        </mxCell>
        <mxCell id="RPWqJmKMvpINWSAvLAO3-101" value="" style="endArrow=block;dashed=1;endFill=0;endSize=12;html=1;rounded=0;entryX=-0.013;entryY=0.395;entryDx=0;entryDy=0;entryPerimeter=0;exitX=1;exitY=0.25;exitDx=0;exitDy=0;" edge="1" parent="1" source="RPWqJmKMvpINWSAvLAO3-38" target="RPWqJmKMvpINWSAvLAO3-98">
          <mxGeometry width="160" relative="1" as="geometry">
            <mxPoint x="965" y="401.5" as="sourcePoint" />
            <mxPoint x="1087" y="218.5" as="targetPoint" />
            <Array as="points">
              <mxPoint x="1010" y="399.5" />
              <mxPoint x="1010" y="349.5" />
              <mxPoint x="1010" y="95" />
            </Array>
          </mxGeometry>
        </mxCell>
        <mxCell id="RPWqJmKMvpINWSAvLAO3-102" value="" style="endArrow=block;dashed=1;endFill=0;endSize=12;html=1;rounded=0;entryX=-0.013;entryY=0.451;entryDx=0;entryDy=0;entryPerimeter=0;exitX=1;exitY=0.25;exitDx=0;exitDy=0;" edge="1" parent="1" source="RPWqJmKMvpINWSAvLAO3-33" target="RPWqJmKMvpINWSAvLAO3-98">
          <mxGeometry width="160" relative="1" as="geometry">
            <mxPoint x="950" y="438" as="sourcePoint" />
            <mxPoint x="1070" y="130" as="targetPoint" />
            <Array as="points">
              <mxPoint x="1020" y="560" />
              <mxPoint x="1020" y="385" />
              <mxPoint x="1020" y="103" />
            </Array>
          </mxGeometry>
        </mxCell>
        <mxCell id="RPWqJmKMvpINWSAvLAO3-103" value="" style="endArrow=block;dashed=1;endFill=0;endSize=12;html=1;rounded=0;entryX=0;entryY=0.5;entryDx=0;entryDy=0;exitX=1.017;exitY=0.198;exitDx=0;exitDy=0;exitPerimeter=0;" edge="1" parent="1" source="RPWqJmKMvpINWSAvLAO3-36" target="RPWqJmKMvpINWSAvLAO3-98">
          <mxGeometry width="160" relative="1" as="geometry">
            <mxPoint x="957" y="600" as="sourcePoint" />
            <mxPoint x="1074" y="140" as="targetPoint" />
            <Array as="points">
              <mxPoint x="1030" y="706" />
              <mxPoint x="1030" y="560" />
              <mxPoint x="1030" y="422" />
              <mxPoint x="1030" y="110" />
            </Array>
          </mxGeometry>
        </mxCell>
      </root>
    </mxGraphModel>
  </diagram>
</mxfile>
